<?xml version="1.0" encoding="iso-8859-1"?>
<!-- Generator: Adobe Illustrator 18.0.0, SVG Export Plug-In . SVG Version: 6.00 Build 0)  -->
<!DOCTYPE svg PUBLIC "-//W3C//DTD SVG 1.1//EN" "http://www.w3.org/Graphics/SVG/1.1/DTD/svg11.dtd">
<svg version="1.1" id="Capa_1" xmlns="http://www.w3.org/2000/svg" xmlns:xlink="http://www.w3.org/1999/xlink" x="0px" y="0px"
	 viewBox="0 0 52.289 52.289" style="enable-background:new 0 0 52.289 52.289;" xml:space="preserve">
<g>
	<path d="M50.401,6.272c-4.623-0.813-9.799-0.127-14.476-0.115c-0.091,0-0.168,0.018-0.236,0.049
		c-0.273-0.084-0.606,0.008-0.704,0.363c-1.115,4.037-2.372,8.027-3.702,11.994c-0.085-0.07-0.188-0.125-0.323-0.133
		c-4.072-0.223-28.065,0.459-28.594,0.459c-0.124,0.002-0.219,0.043-0.299,0.1c-0.66,0.047-1.308,0.232-1.724,0.783
		c-0.56,0.746-0.362,1.848,0.07,2.604c0.604,1.051,1.791,0.938,2.958,0.625c0.357,4.309,1.249,8.523,2.334,12.732
		c0.395,1.527,0.216,2.988,1.649,3.93c0.337,0.221,0.767,0.359,1.245,0.447c-0.537,0.217-1.021,0.594-1.344,1.105
		c-0.808,1.285-0.511,3.316,0.477,4.422c1.68,1.879,4.656-0.051,5.738-1.603c0.614-0.881,0.777-1.982,0.288-2.951
		c-0.207-0.412-0.51-0.717-0.864-0.947c0.101-0.004,0.198-0.006,0.29-0.008c0.101,0,4.672-0.207,6.873-0.379
		c-0.206,0.174-0.371,0.396-0.487,0.662c-0.05,0.035-0.103,0.063-0.151,0.102c-0.284,0.244-0.466,0.594-0.562,0.979
		c-0.404,0.723-0.49,1.551-0.007,2.248c0.082,0.895,0.643,1.701,1.631,2.063c1.76,0.643,3.311-0.527,3.788-2.213
		c0.474-1.67-0.345-3.248-1.824-3.959c0.827-0.014,1.636,0.012,2.408,0.113c0.109,0.016,0.204-0.006,0.292-0.041
		c0.188,0.094,0.42,0.09,0.61-0.109c1.761-1.832,9.427-25.377,11.805-27.496c4.369,0.096,8.688,0.672,12.991,1.49
		c0.315,0.061,0.741-0.164,0.69-0.543c-0.011-0.078-0.026-0.154-0.038-0.233c0.32,0.188,0.852,0.035,0.865-0.457
		C52.12,10.405,53.116,6.749,50.401,6.272z M2.183,21.28c-0.103,0-0.189,0.025-0.261,0.064c0.09-0.545,0.631-0.789,1.308-0.885
		c0.009,0.273,0.016,0.547,0.029,0.82H2.183z M35.935,7.258c0.003,0,0.004,0.002,0.007,0.002c0.361-0.002,0.723-0.004,1.083-0.008
		c-0.415,0.121-0.82,0.266-1.213,0.434C35.852,7.544,35.895,7.401,35.935,7.258z M35.559,8.571c0.161,0.158,0.403,0.244,0.66,0.127
		c0.035-0.016,0.071-0.027,0.106-0.043c-0.695,1.039-1.28,2.174-1.788,3.367C34.886,10.874,35.226,9.723,35.559,8.571z
		 M17.358,19.766c3.871-0.07,7.817-0.145,11.64,0.478c-4.278-0.07-8.553-0.275-12.829-0.377
		C16.565,19.835,16.961,19.795,17.358,19.766z M6.761,22.27c0.089,0.244,0.168,0.492,0.243,0.744
		c0.053,0.248,0.102,0.496,0.148,0.746c-0.039,0.418-0.078,0.836-0.113,1.256C6.922,24.104,6.824,23.19,6.761,22.27z M7.12,37.465
		c-0.015-0.051-0.026-0.105-0.041-0.154c0.239,0.348,0.522,0.67,0.868,0.959c0.004,0.012,0.007,0.024,0.012,0.037
		c0.096,0.262,0.319,0.369,0.541,0.365c0.079,0.051,0.156,0.102,0.24,0.148C7.963,38.596,7.34,38.19,7.12,37.465z M8.438,33.362
		c0.041-0.35,0.08-0.701,0.116-1.059c0.125,0.801,0.22,1.609,0.246,2.393C8.668,34.258,8.549,33.813,8.438,33.362z M12.792,42.993
		c-0.491,1.137-1.691,1.984-2.878,2.236c-0.494,0.104-0.881,0.006-1.18-0.213c0.306,0.131,0.673,0.162,1.11,0.051
		c0.412-0.105,0.819-0.334,1.183-0.631c1.158-0.523,1.939-1.639,1.222-3.002c-0.095-0.18-0.216-0.34-0.349-0.49
		C12.724,41.272,13.259,41.913,12.792,42.993z M10.188,41.946c0.035,0.008,0.063,0.02,0.102,0.021
		c0.314,0.004,0.498,0.104,0.591,0.246c0.017,0.205-0.433,0.781-0.58,0.412c-0.075-0.189-0.09-0.4-0.109-0.602
		C10.19,41.999,10.191,41.973,10.188,41.946z M10.599,38.339c-0.336-0.078-0.628-0.186-0.902-0.305
		c3.87,0.777,7.811,0.223,11.71,0.482C17.796,38.598,14.165,39.161,10.599,38.339z M20.912,44.79
		c-0.299-0.086-0.517-0.242-0.675-0.432c0.417,0.141,0.881,0.18,1.34,0.115c0.478-0.018,0.952-0.176,1.336-0.447
		C22.495,44.686,21.743,45.028,20.912,44.79z M22.617,42.481c0.042,0.131,0.024,0.24-0.026,0.334
		c-0.048,0.055-0.105,0.102-0.162,0.15c-0.016-0.148-0.038-0.291-0.068-0.426c-0.063-0.283-0.158-0.578-0.301-0.842
		C22.318,41.924,22.526,42.198,22.617,42.481z M25.039,36.159c-5.07,0.273-10.61-0.008-15.63,0.613
		c0.267-1.838-1.287-12.103-1.661-14.57c2.87-0.209,6.222-0.15,8.955-0.115c4.419,0.061,8.843,0.104,13.263,0.113
		c0.027,0,0.045-0.012,0.07-0.014C28.416,26.858,26.723,31.506,25.039,36.159z M25.902,37.631c-0.145,0.215-0.295,0.426-0.457,0.627
		c0.126-0.348,0.253-0.697,0.38-1.047c0.029-0.002,0.059-0.002,0.088-0.006c-0.01,0.041-0.02,0.078-0.029,0.117
		C25.854,37.44,25.87,37.542,25.902,37.631z M34.857,14.448c-1.716,4.457-3.219,8.951-5.129,13.342
		c0.776-2.342,1.646-4.658,2.675-6.975c1.185-2.666,2.019-5.879,3.287-8.729c0.141-0.002,0.282,0.002,0.422,0
		C35.587,12.792,35.176,13.62,34.857,14.448z M37.751,10.616c-0.49,0.082-0.98,0.164-1.471,0.238
		c0.293-0.564,0.609-1.107,0.957-1.619c0.656,0.4,1.365,0.693,2.101,0.918C38.75,10.196,38.223,10.358,37.751,10.616z M39.935,9.053
		c-0.003,0-0.007,0-0.01,0l0,0.002c-0.049,0.008-0.098,0.01-0.147,0.019c-0.076,0.012-0.137,0.039-0.19,0.07
		c-0.251-0.094-0.497-0.193-0.734-0.299c1.956-0.428,4.159-0.771,6.268-0.723c1.435,0.233,2.828,0.553,4.093,0.881
		c0.004,0.012,0.007,0.023,0.011,0.037C46.103,8.956,43.044,8.555,39.935,9.053z M49.536,10.157c0.041,0.156,0.08,0.313,0.12,0.469
		c-0.544-0.164-1.092-0.305-1.641-0.432C48.52,10.169,49.027,10.155,49.536,10.157z M47.973,11.651
		c0.633,0.07,1.265,0.127,1.898,0.16c0.02,0,0.033-0.006,0.051-0.008c0.019,0.096,0.04,0.191,0.058,0.285
		C49.308,11.956,48.639,11.809,47.973,11.651z M51.022,11.729c-0.176-0.91-0.4-1.805-0.655-2.703
		c0.238-0.24,0.278-0.684-0.095-0.867c-0.949-0.471-1.979-0.769-3.053-0.943c1.106,0,2.24,0.008,3.315,0.197
		C51.444,7.571,51.16,10.364,51.022,11.729z"/>
</g>
<g>
</g>
<g>
</g>
<g>
</g>
<g>
</g>
<g>
</g>
<g>
</g>
<g>
</g>
<g>
</g>
<g>
</g>
<g>
</g>
<g>
</g>
<g>
</g>
<g>
</g>
<g>
</g>
<g>
</g>
</svg>
