<?xml version="1.0" encoding="UTF-8"?>
<svg width="217px" height="216px" viewBox="0 0 217 216" version="1.1" xmlns="http://www.w3.org/2000/svg" xmlns:xlink="http://www.w3.org/1999/xlink">
    <!-- Generator: Sketch 57.1 (83088) - https://sketch.com -->
    <title>Logo</title>
    <desc>Created with Sketch.</desc>
    <defs>
        <path d="M0.149253659,108 C0.149253659,167.646586 48.678922,216 108.5434,216 L108.5434,216 C168.407878,216 216.937546,167.646586 216.937546,108 L216.937546,108 C216.937546,48.3534141 168.407878,0 108.5434,0 L108.5434,0 C48.678922,0 0.149253659,48.3534141 0.149253659,108 L0.149253659,108 Z" id="path-1"></path>
        <path d="M0.149253659,107.976238 C0.149253659,158.939967 35.5896937,201.656168 83.262159,213 L83.262159,213 L133.824641,213 C181.497106,201.656168 216.937546,158.939967 216.937546,107.976238 L216.937546,107.976238 C216.937546,48.3427752 168.407878,0 108.5434,0 L108.5434,0 C48.678922,0 0.149253659,48.3427752 0.149253659,107.976238" id="path-3"></path>
        <path d="M0.149253659,108 C0.149253659,167.646586 48.678922,216 108.5434,216 L108.5434,216 C168.407878,216 216.937546,167.646586 216.937546,108 L216.937546,108 C216.937546,48.3534141 168.407878,0 108.5434,0 L108.5434,0 C48.678922,0 0.149253659,48.3534141 0.149253659,108" id="path-5"></path>
        <path d="M0.149253659,108 C0.149253659,167.646586 48.678922,216 108.5434,216 L108.5434,216 C168.407878,216 216.937546,167.646586 216.937546,108 L216.937546,108 C216.937546,48.3534141 168.407878,0 108.5434,0 L108.5434,0 C48.678922,0 0.149253659,48.3534141 0.149253659,108 L0.149253659,108 Z" id="path-7"></path>
        <path d="M0.149253659,108 C0.149253659,167.646586 48.678922,216 108.5434,216 L108.5434,216 C168.407878,216 216.937546,167.646586 216.937546,108 L216.937546,108 C216.937546,48.3534141 168.407878,0 108.5434,0 L108.5434,0 C48.678922,0 0.149253659,48.3534141 0.149253659,108 L0.149253659,108 Z" id="path-9"></path>
        <path d="M0.149253659,108 C0.149253659,167.646586 48.678922,216 108.5434,216 L108.5434,216 C168.407878,216 216.937546,167.646586 216.937546,108 L216.937546,108 C216.937546,48.3534141 168.407878,0 108.5434,0 L108.5434,0 C48.678922,0 0.149253659,48.3534141 0.149253659,108 L0.149253659,108 Z" id="path-11"></path>
        <path d="M0.149253659,108 C0.149253659,167.646586 48.678922,216 108.5434,216 L108.5434,216 C168.407878,216 216.937546,167.646586 216.937546,108 L216.937546,108 C216.937546,48.3534141 168.407878,0 108.5434,0 L108.5434,0 C48.678922,0 0.149253659,48.3534141 0.149253659,108 L0.149253659,108 Z" id="path-13"></path>
        <path d="M0.149253659,108 C0.149253659,167.646586 48.678922,216 108.5434,216 L108.5434,216 C168.407878,216 216.937546,167.646586 216.937546,108 L216.937546,108 C216.937546,48.3534141 168.407878,0 108.5434,0 L108.5434,0 C48.678922,0 0.149253659,48.3534141 0.149253659,108 L0.149253659,108 Z" id="path-15"></path>
        <path d="M0.149253659,108 C0.149253659,167.646586 48.678922,216 108.5434,216 L108.5434,216 C168.407878,216 216.937546,167.646586 216.937546,108 L216.937546,108 C216.937546,48.3534141 168.407878,0 108.5434,0 L108.5434,0 C48.678922,0 0.149253659,48.3534141 0.149253659,108 L0.149253659,108 Z" id="path-17"></path>
    </defs>
    <g id="Page-1" stroke="none" stroke-width="1" fill="none" fill-rule="evenodd">
        <g id="Desktop-HD" transform="translate(-612.000000, -127.000000)">
            <g id="Group-36" transform="translate(612.000000, 127.000000)">
                <g id="Group-10">
                    <mask id="mask-2" fill="white">
                        <use xlink:href="#path-1"></use>
                    </mask>
                    <g id="Clip-2"></g>
                    <polygon id="Fill-1" fill="#0000FF" mask="url(#mask-2)" points="0.149253659 216 216.937546 216 216.937546 0 0.149253659 0"></polygon>
                    <path d="M46.7118646,89.9504156 C44.8657768,93.37815 41.4274382,96.0171891 37.2798802,96.7786734 C30.034409,98.1094781 23.0921026,93.2583375 21.7657563,86.0887828 C20.4212031,78.8196656 25.1810187,71.8711734 32.42649,70.5407906 C36.4739104,69.7976578 40.4806831,71.0694 43.481846,73.6069781 L38.6458158,79.0251188 C37.1426939,77.6023453 35.3829826,77.3076656 33.734206,77.6105719 C30.4859807,78.2071031 28.3075124,81.2325797 28.9614763,84.7676813 C29.6245436,88.3521422 32.7334656,90.3552047 35.9812675,89.7588844 C37.980208,89.3918531 39.5224958,88.2331734 40.3640324,86.6374313 L46.7118646,89.9504156 Z" id="Fill-3" fill="#FBFD30" mask="url(#mask-2)"></path>
                    <path d="M65.3381707,78.0874594 C64.6842068,74.5523578 61.6161444,72.4904438 58.1684907,73.1236781 C54.9202654,73.7202094 52.7415854,76.745475 53.3955493,80.2805766 C54.0586166,83.8650375 57.1673268,85.8683109 60.4155522,85.2719906 C63.8632059,84.6387563 66.001238,81.6719203 65.3381707,78.0874594 M72.5838537,76.7568656 C73.9097766,83.9264203 68.9594244,90.9613969 61.7141649,92.2917797 C54.468482,93.6223734 47.5259639,88.7712328 46.200041,81.6018891 C44.8552761,74.3327719 49.61488,67.3842797 56.8605629,66.0538969 C64.1062459,64.7233031 71.2390888,69.4877484 72.5838537,76.7568656" id="Fill-4" fill="#FBFD30" mask="url(#mask-2)"></path>
                    <path d="M94.3199498,72.7651898 C93.6659859,69.2302992 90.7478122,67.1407523 87.4498356,67.7463539 C84.201822,68.3428852 82.023142,71.3685727 82.6771059,74.9034633 C83.3401732,78.4881352 86.4488834,80.4911977 89.6971088,79.8946664 C92.9950854,79.2890648 94.9830171,76.3498617 94.3199498,72.7651898 L94.3199498,72.7651898 Z M96.5752678,46.9719633 L103.436702,84.0638461 L96.3411195,85.366807 L96.0093741,83.5744711 C95.1771527,85.2202055 92.5947468,86.6212523 90.2960288,87.0431273 C83.400298,88.3093852 76.8075205,83.3941195 75.4815976,76.2245648 C74.1368327,68.9556586 78.6965849,62.0440805 85.4424268,60.8052445 C87.691182,60.3922289 90.6921332,60.9737836 92.0125517,61.9666664 L89.4798971,48.2749242 L96.5752678,46.9719633 Z" id="Fill-5" fill="#FBFD30" mask="url(#mask-2)"></path>
                    <path d="M115.528514,81.8433281 L108.432719,83.1465 L103.782145,58.0035938 L110.877727,56.7006328 L115.528514,81.8433281 Z M101.616802,49.6498359 C101.248432,47.658375 102.797282,45.4175859 104.995863,45.0138516 C107.394295,44.5734141 109.583772,46.0763438 109.961458,48.1171641 C110.366666,50.3081719 108.858675,52.4896875 106.460031,52.930125 C104.26145,53.3338594 102.02201,51.8404219 101.616802,49.6498359 L101.616802,49.6498359 Z" id="Fill-6" fill="#FBFD30" mask="url(#mask-2)"></path>
                    <path d="M145.959175,76.2551508 L138.913556,77.5492523 L136.592608,65.0024789 C135.846552,60.9697758 133.120185,59.3596898 130.222123,59.8918852 C127.074036,60.4700648 124.553448,63.0435023 125.299505,67.0764164 L127.62024,79.622768 L120.524446,80.9259398 L115.873872,55.7830336 L122.969454,54.4800727 L123.291884,56.2226273 C124.395938,54.3724945 127.215668,53.1340805 129.513962,52.7122055 C136.409693,51.4457367 142.293675,56.439893 143.638228,63.7087992 L145.959175,76.2551508 Z" id="Fill-7" fill="#FBFD30" mask="url(#mask-2)"></path>
                    <path d="M166.073636,59.5888102 C165.419672,56.0537086 162.501286,53.9643727 159.203733,54.5699742 C155.955719,55.1662945 153.776616,58.191982 154.43058,61.7268727 C155.093647,65.3115445 158.202781,67.314607 161.450795,66.7180758 C164.748559,66.1124742 166.736703,63.1732711 166.073636,59.5888102 M168.131431,72.3895523 L167.762848,70.3978805 C166.930838,72.0438258 164.348433,73.4446617 162.049715,73.8667477 C155.153984,75.1327945 148.561418,70.2177398 147.235283,63.0481852 C145.890518,55.7792789 150.450482,48.8674898 157.196113,47.6286539 C159.444868,47.2158492 162.445607,47.797193 163.766026,48.7900758 L163.443596,47.047732 L170.53939,45.7445602 L175.144236,70.6385602 C176.442848,77.6583492 171.76454,84.4891383 164.618995,85.8013805 C160.121908,86.6269898 155.800538,85.0527633 152.816523,82.0485914 L157.798632,76.8607945 C159.170283,78.4105523 161.221727,79.1665523 163.320382,78.7809586 C166.568396,78.1848492 168.683775,75.3768492 168.131431,72.3895523" id="Fill-8" fill="#FBFD30" mask="url(#mask-2)"></path>
                    <path d="M179.938813,78.4065445 L181.196143,66.4898414 L189.19127,65.0215055 L184.336186,77.5990758 L179.938813,78.4065445 Z M184.945903,45.9818648 C185.323801,48.023318 184.096957,50.0502164 181.748276,50.4815836 C179.499521,50.8943883 177.578489,49.4454586 177.200803,47.4040055 C176.795595,45.2136305 178.090609,43.2768023 180.339364,42.8639977 C182.63787,42.4417008 184.540907,43.7912789 184.945903,45.9818648 L184.945903,45.9818648 Z" id="Fill-9" fill="#FBFD30" mask="url(#mask-2)"></path>
                </g>
                <g id="Group-13">
                    <mask id="mask-4" fill="white">
                        <use xlink:href="#path-3"></use>
                    </mask>
                    <g id="Clip-12"></g>
                    <path d="M-16.6791916,137.054913 C-19.6572784,137.054913 -21.7222716,136.257745 -23.4684336,135.583315 C-25.3640609,134.851734 -26.6163097,134.36795 -29.3016053,134.839291 L-30.6976033,126.946903 C-25.8020833,126.087522 -22.8961887,127.209252 -20.5612687,128.111233 C-18.6656414,128.843025 -17.4133926,129.326809 -14.728097,128.855257 C-12.0425897,128.384126 -11.0314755,127.503234 -9.50083161,126.169981 C-7.61578966,124.527983 -5.26964917,122.484237 -0.374129171,121.625067 C4.52075571,120.765686 7.42728546,121.887837 9.76220546,122.789396 C11.6580445,123.521189 12.9102933,124.004973 15.5953772,123.533631 C18.2806728,123.06229 19.2917869,122.181608 20.8224308,120.848144 C22.7074728,119.206146 25.0534016,117.162611 29.9491333,116.303441 C34.8452884,115.44406 37.7505479,116.566422 40.0852562,117.467771 C41.9804601,118.199352 43.2320738,118.683558 45.9177928,118.211794 C48.602665,117.740664 49.6139908,116.859772 51.1442113,115.526729 C53.0292533,113.884731 55.375182,111.840986 60.270702,110.981815 C65.1660103,110.122434 68.071905,111.244586 70.4070367,112.146356 C72.302664,112.877937 73.5549128,113.361721 76.239785,112.89038 C78.9250806,112.419249 79.9361947,111.538357 81.4668386,110.205103 C83.3518806,108.562894 85.6980211,106.51936 90.5937528,105.66019 C95.4896962,104.801019 98.3953791,105.922749 100.730299,106.824308 C102.626562,107.556311 103.879657,108.040306 106.564106,107.568543 C109.24919,107.097201 110.260516,106.21652 111.790948,104.883056 C113.67599,103.241058 116.021919,101.197523 120.91765,100.338142 C125.813805,99.4787608 128.719277,100.601123 131.054408,101.502261 C132.950247,102.234475 134.203131,102.718048 136.888215,102.246285 C139.573934,101.775154 140.584837,100.894262 142.115269,99.5612192 C144.000734,97.9190103 146.346663,95.8752648 151.242395,95.0160945 C156.137703,94.1569242 159.044021,95.2788648 161.378941,96.1804242 C163.274568,96.9122162 164.526605,97.3962113 167.211901,96.9246588 C169.897408,96.4533172 170.908523,95.572636 172.439378,94.2393826 C174.32442,92.5971737 176.670561,90.553639 181.566292,89.6944687 C186.461812,88.8352984 189.36813,89.9570281 191.703262,90.8583766 C193.599313,91.5901687 194.852197,92.0741638 197.537492,91.6026113 C200.223,91.1310588 201.234114,90.2503776 202.765181,88.9169133 C204.650223,87.2749152 206.996575,85.2313806 211.89273,84.3719994 C216.788674,83.5132509 219.694568,84.6349806 222.0297,85.5359073 C223.925963,86.2681212 225.179058,86.7512727 227.864142,86.2799311 L229.259928,94.1723192 C224.363985,95.0312786 221.45809,93.9095489 219.12317,93.0086222 C217.226908,92.2766192 215.974659,91.7930459 213.288517,92.2643875 C210.602586,92.7357291 209.59126,93.6164103 208.060616,94.9498747 C206.175151,96.5920836 203.82901,98.6356182 198.933067,99.4947885 C194.036912,100.353959 191.131229,99.2322291 188.796309,98.3308806 C186.900258,97.5988776 185.647798,97.1157261 182.96229,97.5868568 C180.276571,98.0579875 179.265457,98.9388796 177.734813,100.272133 C175.849771,101.914131 173.503631,103.957877 168.607899,104.817047 C163.712803,105.676217 160.806484,104.554277 158.471353,103.652717 C156.575725,102.920714 155.323477,102.43693 152.638181,102.908483 C149.952885,103.379824 148.941771,104.260505 147.411127,105.593759 C145.526085,107.235757 143.179945,109.279502 138.284213,110.138673 C133.388905,110.997843 130.482375,109.876113 128.147455,108.974765 C126.251616,108.242973 124.999367,107.758767 122.313648,108.23053 C119.628353,108.701872 118.617239,109.582553 117.086806,110.915806 C115.201553,112.558015 112.855412,114.60155 107.959892,115.46072 C103.063949,116.31989 100.158054,115.19795 97.823346,114.296601 C95.9272952,113.564809 94.6748347,113.080814 91.9897508,113.552578 C89.3040318,114.023708 88.2931294,114.9046 86.7622738,116.237854 C84.8774435,117.879852 82.531303,119.923597 77.635783,120.782768 C72.7404747,121.642149 69.8343684,120.519787 67.4994484,119.618438 C65.6038211,118.886646 64.351784,118.402862 61.6664884,118.874203 C58.9816162,119.345334 57.9702903,120.226015 56.4400699,121.559269 C54.5552396,123.201478 52.2093108,125.245012 47.3137908,126.104183 C42.4186942,126.962931 39.5123762,125.841201 37.1776679,124.939853 C35.2820406,124.208061 34.0291567,123.724066 31.3451313,124.195618 C28.659624,124.66696 27.6487216,125.547852 26.1180777,126.880894 C24.2330357,128.522892 21.8868952,130.566427 16.9913752,131.426019 C12.0962786,132.284979 9.18974888,131.163038 6.85482888,130.26169 C4.95920156,129.529687 3.70716449,129.045691 1.02165717,129.517455 C-1.66342673,129.988586 -2.67475259,130.869478 -4.20518478,132.202731 C-6.09022673,133.844729 -8.43636722,135.888475 -13.3320989,136.747645 C-14.5665643,136.96423 -15.6750638,137.054913 -16.6791916,137.054913" id="Fill-11" fill="#FBFD30" mask="url(#mask-4)"></path>
                </g>
                <g id="Group-35">
                    <g id="Group-16">
                        <mask id="mask-6" fill="white">
                            <use xlink:href="#path-5"></use>
                        </mask>
                        <g id="Clip-15"></g>
                        <path d="M33.3325338,157.207352 C32.5221181,152.82618 35.9301825,148.905907 39.4280108,148.263391 C42.6760245,147.66686 45.432242,148.602157 47.6602499,150.869735 L43.3170742,155.322415 C42.5199962,154.645305 41.6284967,154.294095 40.729164,154.45947 C39.7796567,154.633704 39.3312606,155.282126 39.4692938,156.029055 C39.6075386,156.775985 40.354442,157.462376 42.4219757,157.185626 C46.9150401,156.618204 50.9563211,158.912993 51.9049816,164.041305 C52.8441152,169.119626 49.4413435,173.348079 44.5443416,174.247095 C41.5961055,174.788571 38.1639064,174.389266 35.2760069,171.625141 L39.6452225,166.756071 C41.0208967,168.047641 42.1624225,168.352657 43.2616069,168.15079 C44.5608547,167.912009 45.4851689,166.76472 45.2732499,165.619329 C44.9694499,163.976337 43.8819094,163.403852 41.9869172,163.494345 C37.5289962,163.695368 34.0967972,161.34004 33.3325338,157.207352" id="Fill-14" fill="#FBFD30" mask="url(#mask-6)"></path>
                    </g>
                    <g id="Group-19">
                        <mask id="mask-8" fill="white">
                            <use xlink:href="#path-7"></use>
                        </mask>
                        <g id="Clip-18"></g>
                        <path d="M62.3715796,151.360017 L63.8543777,159.375853 C64.3792001,162.213806 67.2173484,163.030767 70.4651503,162.434447 L71.763763,169.454447 C64.2185142,170.840095 58.0019406,167.400338 56.7956323,160.87815 L55.2759972,152.663189 L51.4783913,153.360548 L50.2718713,146.83815 L54.0694772,146.141002 L53.4616655,142.855017 L59.6085874,136.423744 L61.1650596,144.83783 L67.1614577,143.736525 L68.3679777,150.258923 L62.3715796,151.360017 Z" id="Fill-17" fill="#FBFD30" mask="url(#mask-8)"></path>
                    </g>
                    <g id="Group-22">
                        <mask id="mask-10" fill="white">
                            <use xlink:href="#path-9"></use>
                        </mask>
                        <g id="Clip-21"></g>
                        <path d="M90.5280388,152.469907 C89.8740749,148.935016 86.956113,146.84547 83.6581364,147.451071 C80.409911,148.047602 78.2314427,151.07329 78.8851949,154.60818 C79.548474,158.192852 82.6569725,160.195493 85.9051979,159.599173 C89.2031744,158.993571 91.1911061,156.054579 90.5280388,152.469907 L90.5280388,152.469907 Z M94.993793,138.625657 L99.644791,163.768352 L92.5489969,165.071313 L92.2172515,163.279188 C91.3854535,164.925134 88.8028359,166.325548 86.5041179,166.747845 C79.6083871,168.013891 73.0156096,163.098837 71.6896866,155.929282 C70.3449218,148.660165 74.904674,141.748587 81.6505159,140.509962 C83.899271,140.096735 86.9002222,140.678501 88.2206408,141.671384 L87.8979988,139.928618 L94.993793,138.625657 Z" id="Fill-20" fill="#FBFD30" mask="url(#mask-10)"></path>
                    </g>
                    <g id="Group-25">
                        <mask id="mask-12" fill="white">
                            <use xlink:href="#path-11"></use>
                        </mask>
                        <g id="Clip-24"></g>
                        <path d="M114.70277,142.110492 C113.957349,141.990258 113.189275,142.028016 112.389656,142.17525 C109.641484,142.679813 107.670277,145.152211 108.416545,149.185125 L110.737281,161.731477 L103.641698,163.034438 L98.9907001,137.891742 L106.086283,136.58857 L106.408713,138.331336 C107.653764,136.404 109.633015,135.37125 111.581781,135.013289 C112.181336,134.90318 112.680965,134.811211 113.348902,134.791594 L114.70277,142.110492 Z" id="Fill-23" fill="#FBFD30" mask="url(#mask-12)"></path>
                    </g>
                    <g id="Group-28">
                        <mask id="mask-14" fill="white">
                            <use xlink:href="#path-13"></use>
                        </mask>
                        <g id="Clip-27"></g>
                        <path d="M128.578915,139.202276 L130.061713,147.217901 C130.586535,150.055643 133.424684,150.873026 136.672485,150.276495 L137.971098,157.296495 C130.425849,158.682354 124.209276,155.242174 123.002756,148.719987 L121.483121,140.505026 L117.685726,141.202385 L116.479206,134.680409 L120.276812,133.982838 L119.669001,130.696854 L125.815923,124.26558 L127.372395,132.679666 L133.368793,131.578784 L134.575313,138.100971 L128.578915,139.202276 Z" id="Fill-26" fill="#FBFD30" mask="url(#mask-14)"></path>
                    </g>
                    <g id="Group-31">
                        <mask id="mask-16" fill="white">
                            <use xlink:href="#path-15"></use>
                        </mask>
                        <g id="Clip-30"></g>
                        <path d="M136.266325,131.046567 L143.362119,129.743395 L145.673751,142.240177 C146.34571,145.874841 149.16417,147.982528 152.012268,147.459614 C155.160568,146.881223 157.822999,144.797161 156.966643,140.166661 L154.654799,127.66988 L161.700842,126.375778 L166.351417,151.518684 L159.305797,152.812786 L158.974264,151.020028 C157.820035,152.879864 154.759806,154.213411 152.361374,154.653848 C145.715669,155.874333 139.968451,151.061372 138.688468,144.140723 L136.266325,131.046567 Z" id="Fill-29" fill="#FBFD30" mask="url(#mask-16)"></path>
                    </g>
                    <g id="Group-34">
                        <mask id="mask-18" fill="white">
                            <use xlink:href="#path-17"></use>
                        </mask>
                        <g id="Clip-33"></g>
                        <path d="M174.814014,136.940456 C175.477082,140.525128 178.395467,142.614675 181.693232,142.009073 C184.941457,141.412542 187.120137,138.387066 186.45707,134.802394 C185.803106,131.267503 182.694396,129.264652 179.446171,129.860972 C176.148406,130.466784 174.160051,133.405566 174.814014,136.940456 L174.814014,136.940456 Z M172.568012,162.783675 L165.697474,125.642011 L172.793056,124.33905 L173.115698,126.081605 C173.99386,124.684777 176.539429,123.084816 178.838147,122.662519 C185.783841,121.387191 192.31734,126.261956 193.643475,133.431511 C194.988028,140.700206 190.437591,147.661777 183.541649,148.928034 C181.442994,149.313628 178.756428,149.03498 177.112309,147.689409 L179.663594,161.480714 L172.568012,162.783675 Z" id="Fill-32" fill="#FBFD30" mask="url(#mask-18)"></path>
                    </g>
                </g>
            </g>
        </g>
    </g>
</svg>